<?xml version="1.0" encoding="UTF-8"?>
<svg width="18px" height="18px" viewBox="0 0 18 18" version="1.1" xmlns="http://www.w3.org/2000/svg" xmlns:xlink="http://www.w3.org/1999/xlink">
    <title>6A18059F-750C-4CBD-918F-F0B7B9181647</title>
    <g id="Rev1.2" stroke="none" stroke-width="1" fill="none" fill-rule="evenodd">
        <g id="Benchwick-Rev1.2-Home-3" transform="translate(-630.000000, -141.000000)">
            <g id="close" transform="translate(630.000000, 141.000000)">
                <circle id="Oval" stroke="#DEDEDE" fill="#FFFFFF" cx="9" cy="9" r="8.5"></circle>
                <path d="M9.73301795,9.00005931 L12.8481218,5.88486054 C13.0508475,5.68222978 13.0508475,5.35460384 12.8481218,5.15197307 C12.6454911,4.94934231 12.3178651,4.94934231 12.1152344,5.15197307 L9.00003558,8.26717186 L5.88493172,5.15197307 C5.68220605,4.94934231 5.35467502,4.94934231 5.15204425,5.15197307 C4.94931858,5.35460384 4.94931858,5.68222978 5.15204425,5.88486054 L8.26714814,9.00005931 L5.15204425,12.1152581 C4.94931858,12.3178889 4.94931858,12.6455148 5.15204425,12.8481456 C5.25302745,12.9492237 5.38580517,13 5.518488,13 C5.6511708,13 5.78385362,12.9492237 5.88493172,12.8481456 L9.00003558,9.73294678 L12.1152344,12.8481456 C12.2163125,12.9492237 12.3489953,13 12.4816781,13 C12.6143609,13 12.7470437,12.9492237 12.8481218,12.8481456 C13.0508475,12.6455148 13.0508475,12.3178889 12.8481218,12.1152581 L9.73301795,9.00005931 Z" id="Path" fill="#6C6C6C" fill-rule="nonzero"></path>
            </g>
        </g>
    </g>
</svg>