<?xml version="1.0" encoding="UTF-8"?>
<svg width="14.5px" height="15px" viewBox="0 0 14.5 15" version="1.1" xmlns="http://www.w3.org/2000/svg" xmlns:xlink="http://www.w3.org/1999/xlink">
    <title>C1377BC0-D8A2-439B-B5CD-B0221C63EEC9</title>
    <g id="Rev1.1" stroke="none" stroke-width="1" fill="none" fill-rule="evenodd">
        <g id="Benchwick-Option2-Login-1" transform="translate(-318.000000, -468.000000)" fill="#757575" fill-rule="nonzero">
            <g id="Group-2" transform="translate(181.000000, 110.000000)">
                <g id="bt_signup-copy" transform="translate(49.000000, 347.000000)">
                    <g id="Group-6" transform="translate(88.000000, 3.000000)">
                        <g id="google-plus" transform="translate(0.000000, 8.000000)">
                            <path d="M14.3182624,5.52632553 L6.88746637,5.52632553 L6.88746637,9.07895346 L10.6246792,9.07895346 C10.1222887,10.5525077 8.9047407,11.4473721 7.34891765,11.4473721 C5.26891177,11.4473721 3.44373318,9.60199465 3.44373318,7.49845035 C3.44373318,5.39647883 5.26891177,3.55267419 7.34891765,3.55267419 C8.34338529,3.55267419 9.18405078,3.88032085 9.78020225,4.49962531 L10.0507236,4.78106005 L12.6132557,2.1374978 L12.3347079,1.85842223 C11.1217336,0.642618583 9.39798373,0 7.34896249,0 C3.2283205,0 0,3.29372092 0,7.49845035 C0,11.7047526 3.2283205,15 7.34891765,15 C11.1473374,15 13.8460943,12.7010612 14.3921143,9.00040707 C14.4632758,8.52038598 14.4996413,8.01515418 14.5,7.49845035 C14.5,6.9312326 14.4529177,6.31581382 14.3741333,5.85276948 L14.3182624,5.52632553 Z" id="Shape"></path>
                        </g>
                    </g>
                </g>
            </g>
        </g>
    </g>
</svg>