<?xml version="1.0" encoding="UTF-8"?>
<svg width="17.2724609px" height="17.25px" viewBox="0 0 17.2724609 17.25" version="1.1" xmlns="http://www.w3.org/2000/svg" xmlns:xlink="http://www.w3.org/1999/xlink">
    <title>88C5B44B-A990-4CA5-AB01-0C8CE01719B7</title>
    <g id="Rev1.2" stroke="none" stroke-width="1" fill="none" fill-rule="evenodd">
        <g id="Benchwick-Rev1.2-Home-1" transform="translate(-1348.875000, -41.750000)" fill="#FFFFFF" fill-rule="nonzero">
            <g id="Group-30" transform="translate(1217.000000, 41.031250)">
                <g id="logout" transform="translate(131.875000, 0.718750)">
                    <path d="M8.625,0 C7.06770833,0 5.61523438,0.396809896 4.26757812,1.19042969 C2.96484375,1.9391276 1.9391276,2.96484375 1.19042969,4.26757812 C0.396809896,5.61523438 0,7.06770833 0,8.625 C0,10.1822917 0.396809896,11.6347656 1.19042969,12.9824219 C1.9391276,14.2851562 2.96484375,15.3183594 4.26757812,16.0820312 C5.61523438,16.8606771 7.06770833,17.25 8.625,17.25 C10.0625,17.25 11.4101562,16.9130859 12.6679688,16.2392578 C13.8808594,15.5953776 14.8841146,14.7119141 15.6777344,13.5888672 L14.5097656,12.7578125 C13.8509115,13.7011719 13.0123698,14.4423828 11.9941406,14.9814453 C10.9459635,15.5354818 9.82291667,15.8125 8.625,15.8125 C7.32226562,15.8125 6.109375,15.4830729 4.98632812,14.8242188 C3.90820312,14.1953125 3.0546875,13.3417969 2.42578125,12.2636719 C1.76692708,11.140625 1.4375,9.92773438 1.4375,8.625 C1.4375,7.32226562 1.76692708,6.109375 2.42578125,4.98632812 C3.0546875,3.90820312 3.90820312,3.0546875 4.98632812,2.42578125 C6.109375,1.76692708 7.32226562,1.4375 8.625,1.4375 C9.82291667,1.4375 10.9459635,1.71451823 11.9941406,2.26855469 C13.0123698,2.80761719 13.8509115,3.54882812 14.5097656,4.4921875 L15.6777344,3.66113281 C14.8841146,2.53808594 13.8808594,1.6546224 12.6679688,1.01074219 C11.4101562,0.336914062 10.0625,0 8.625,0 Z M13.9033203,5.23339844 L12.8701172,6.26660156 L14.5097656,7.90625 L5.75,7.90625 L5.75,9.34375 L14.5097656,9.34375 L12.8701172,10.9833984 L13.9033203,12.0166016 L16.7783203,9.14160156 L17.2724609,8.625 L16.7783203,8.10839844 L13.9033203,5.23339844 Z" id="Shape"></path>
                </g>
            </g>
        </g>
    </g>
</svg>