<?xml version="1.0" encoding="UTF-8"?>
<svg width="64px" height="64px" viewBox="0 0 64 64" version="1.1" xmlns="http://www.w3.org/2000/svg" xmlns:xlink="http://www.w3.org/1999/xlink">
    <title>0347CE4F-B7C8-4711-BBD0-E58EDAFA8299</title>
    <g id="Rev1.2" stroke="none" stroke-width="1" fill="none" fill-rule="evenodd">
        <g id="Benchwick-Rev1.2-Home-1" transform="translate(-152.000000, -227.000000)">
            <g id="Group-10" transform="translate(73.000000, 148.000000)">
                <g id="Group-7" transform="translate(35.000000, 36.000000)">
                    <g id="upload" transform="translate(44.000000, 43.000000)">
                        <circle id="Oval" stroke="#996BF1" stroke-width="3" fill="#FFFFFF" cx="32" cy="32" r="30.5"></circle>
                        <g id="arrow-upward" transform="translate(22.000000, 19.000000)" fill="#5506ED" fill-rule="nonzero">
                            <path d="M20.8312453,9.65106383 L10.9270546,0.172340426 C10.686953,-0.0574468085 10.3268006,-0.0574468085 10.086699,0.172340426 L0.182508325,9.65106383 C0.00243213039,9.82340426 -0.0575932678,10.0531915 0.0624575286,10.2829787 C0.122482927,10.4553191 0.362584519,10.6276596 0.602686112,10.6276596 L6.06499735,10.6276596 L6.06499735,26.4255319 C6.06499735,26.7702128 6.30509894,27 6.66525133,27 L14.2884769,27 C14.6486293,27 14.8887309,26.7702128 14.8887309,26.4255319 L14.8887309,10.6276596 L20.3510421,10.6276596 C20.5911437,10.6276596 20.8312453,10.512766 20.8912707,10.2829787 C21.0713469,10.0531915 21.0113215,9.82340426 20.8312453,9.65106383 Z" id="Path"></path>
                        </g>
                    </g>
                </g>
            </g>
        </g>
    </g>
</svg>