<?xml version="1.0" encoding="UTF-8"?>
<svg width="18.6875px" height="18.6875px" viewBox="0 0 18.6875 18.6875" version="1.1" xmlns="http://www.w3.org/2000/svg" xmlns:xlink="http://www.w3.org/1999/xlink">
    <title>61A53E1F-BE44-4058-BCBF-6CA16F0F0D1E</title>
    <g id="Rev1.2" stroke="none" stroke-width="1" fill="none" fill-rule="evenodd">
        <g id="Benchwick-Rev1.2-Home-1" transform="translate(-1319.156250, -41.031250)" fill="#FFFFFF" fill-rule="nonzero">
            <g id="Group-30" transform="translate(1217.000000, 41.031250)">
                <g id="user" transform="translate(102.156250, 0.000000)">
                    <path d="M9.34375,0 C7.65169271,0 6.07942708,0.426757812 4.62695312,1.28027344 C3.21940104,2.10384115 2.10384115,3.21940104 1.28027344,4.62695312 C0.426757812,6.07942708 0,7.65169271 0,9.34375 C0,11.0358073 0.426757812,12.6080729 1.28027344,14.0605469 C2.10384115,15.468099 3.21940104,16.5836589 4.62695312,17.4072266 C6.07942708,18.2607422 7.65169271,18.6875 9.34375,18.6875 C11.0358073,18.6875 12.6080729,18.2607422 14.0605469,17.4072266 C15.468099,16.5836589 16.5836589,15.468099 17.4072266,14.0605469 C18.2607422,12.6080729 18.6875,11.0358073 18.6875,9.34375 C18.6875,7.65169271 18.2607422,6.07942708 17.4072266,4.62695312 C16.5836589,3.21940104 15.468099,2.10384115 14.0605469,1.28027344 C12.6080729,0.426757812 11.0358073,0 9.34375,0 Z M9.34375,1.4375 C10.78125,1.4375 12.1139323,1.796875 13.3417969,2.515625 C14.5247396,3.21940104 15.468099,4.16276042 16.171875,5.34570312 C16.890625,6.57356771 17.25,7.90625 17.25,9.34375 C17.25,10.78125 16.890625,12.1139323 16.171875,13.3417969 C15.468099,14.5247396 14.5247396,15.468099 13.3417969,16.171875 C12.1139323,16.890625 10.78125,17.25 9.34375,17.25 C7.90625,17.25 6.57356771,16.890625 5.34570312,16.171875 C4.16276042,15.468099 3.21940104,14.5247396 2.515625,13.3417969 C1.796875,12.1139323 1.4375,10.78125 1.4375,9.34375 C1.4375,7.90625 1.796875,6.57356771 2.515625,5.34570312 C3.21940104,4.16276042 4.16276042,3.21940104 5.34570312,2.515625 C6.57356771,1.796875 7.90625,1.4375 9.34375,1.4375 Z M9.34375,3.59375 C8.69986979,3.59375 8.10091146,3.75472005 7.546875,4.07666016 C6.99283854,4.39860026 6.55485026,4.83658854 6.23291016,5.390625 C5.91097005,5.94466146 5.75,6.54361979 5.75,7.1875 C5.75,7.71158854 5.86230469,8.20947266 6.08691406,8.68115234 C6.31152344,9.15283203 6.62597656,9.5608724 7.03027344,9.90527344 C6.20670573,10.3245443 5.54785156,10.9347331 5.05371094,11.7358398 C4.55957031,12.5369466 4.3125,13.4166667 4.3125,14.375 L5.75,14.375 C5.75,13.7161458 5.91097005,13.113444 6.23291016,12.5668945 C6.55485026,12.0203451 6.98909505,11.5861003 7.53564453,11.2641602 C8.08219401,10.9422201 8.68489583,10.78125 9.34375,10.78125 C10.0026042,10.78125 10.605306,10.9422201 11.1518555,11.2641602 C11.6984049,11.5861003 12.1326497,12.0203451 12.4545898,12.5668945 C12.7765299,13.113444 12.9375,13.7161458 12.9375,14.375 L14.375,14.375 C14.375,13.4166667 14.1279297,12.5369466 13.6337891,11.7358398 C13.1396484,10.9347331 12.4807943,10.3245443 11.6572266,9.90527344 C12.0615234,9.5608724 12.3759766,9.15283203 12.6005859,8.68115234 C12.8251953,8.20947266 12.9375,7.71158854 12.9375,7.1875 C12.9375,6.54361979 12.7765299,5.94466146 12.4545898,5.390625 C12.1326497,4.83658854 11.6946615,4.39860026 11.140625,4.07666016 C10.5865885,3.75472005 9.98763021,3.59375 9.34375,3.59375 Z M9.34375,5.03125 C9.94270833,5.03125 10.4518229,5.24088542 10.8710938,5.66015625 C11.2903646,6.07942708 11.5,6.58854167 11.5,7.1875 C11.5,7.78645833 11.2903646,8.29557292 10.8710938,8.71484375 C10.4518229,9.13411458 9.94270833,9.34375 9.34375,9.34375 C8.74479167,9.34375 8.23567708,9.13411458 7.81640625,8.71484375 C7.39713542,8.29557292 7.1875,7.78645833 7.1875,7.1875 C7.1875,6.58854167 7.39713542,6.07942708 7.81640625,5.66015625 C8.23567708,5.24088542 8.74479167,5.03125 9.34375,5.03125 Z" id="Shape"></path>
                </g>
            </g>
        </g>
    </g>
</svg>